<?xml version="1.0" encoding="UTF-8"?>
<svg version="1.1" xmlns="http://www.w3.org/2000/svg" width="512" height="512">
<path d="M0 0 C0.85390804 -0.00438225 1.70781607 -0.00876451 2.58760011 -0.01327956 C5.45394065 -0.02665272 8.32025045 -0.03284311 11.18661499 -0.03897095 C13.23992044 -0.04687311 15.2932245 -0.05514213 17.3465271 -0.06375122 C24.09447912 -0.08995912 30.84243732 -0.10527811 37.59042358 -0.11953735 C39.91435119 -0.12489763 42.23827875 -0.13027514 44.56220627 -0.13566971 C54.23015366 -0.15729703 63.89809938 -0.17603318 73.56606483 -0.1872921 C87.41595138 -0.2035278 101.26555723 -0.23669838 115.11533797 -0.29369295 C124.85647097 -0.3324112 134.59752896 -0.35192707 144.33873689 -0.35721266 C150.15517814 -0.36086362 155.97131991 -0.37285822 161.78767776 -0.4053154 C167.26247506 -0.43542869 172.73679218 -0.44169598 178.21165466 -0.42993164 C180.21672227 -0.42971118 182.22181238 -0.43799343 184.22680283 -0.45558548 C205.23743798 -0.62984261 205.23743798 -0.62984261 214.05136108 7.36483765 C220.43778376 16.21003306 220.90447318 23.41739781 220.61386108 34.15390015 C221.17073608 34.16807983 221.72761108 34.18225952 222.30136108 34.1968689 C230.35104068 34.69997387 235.61322644 37.6925426 240.98886108 43.65390015 C247.7310982 52.13194357 246.79584557 62.45385574 246.80136108 72.77890015 C246.81360718 73.99319702 246.82585327 75.2074939 246.83847046 76.45858765 C246.84040405 77.6290564 246.84233765 78.79952515 246.84432983 80.00546265 C246.84843872 81.06587769 246.85254761 82.12629272 246.85678101 83.21884155 C246.44233027 88.22640614 245.17411027 90.59365096 241.61386108 94.15390015 C237.32386108 94.48390015 233.03386108 94.81390015 228.61386108 95.15390015 C224.98386108 125.84390015 221.35386108 156.53390015 217.61386108 188.15390015 C219.26386108 188.81390015 220.91386108 189.47390015 222.61386108 190.15390015 C227.19719442 194.32056681 227.19719442 194.32056681 228.61386108 197.15390015 C228.65408499 199.48688675 228.65706355 201.8209668 228.61386108 204.15390015 C230.16496582 204.1381897 230.16496582 204.1381897 231.74740601 204.12216187 C235.59584063 204.0858727 239.44426022 204.06296729 243.29281616 204.04403687 C244.95625352 204.03399958 246.61967333 204.02036684 248.28305054 204.00302124 C250.67852113 203.97867266 253.07375776 203.96739426 255.46932983 203.95858765 C256.57899361 203.94310379 256.57899361 203.94310379 257.71107483 203.92730713 C261.78237697 203.92642897 265.04135359 204.12402085 268.61386108 206.15390015 C270.68185504 208.25988284 271.51922394 209.51755863 271.95443726 212.44393921 C271.93872681 213.26088257 271.92301636 214.07782593 271.90682983 214.91952515 C271.89716187 215.80897827 271.8874939 216.6984314 271.87753296 217.61483765 C271.85239624 218.53522827 271.82725952 219.4556189 271.80136108 220.40390015 C271.78782593 221.33975952 271.77429077 222.2756189 271.76034546 223.23983765 C271.72506063 225.54511341 271.6757639 227.84921075 271.61386108 230.15390015 C272.52152222 230.1381897 273.42918335 230.12247925 274.36434937 230.10629272 C277.7525918 230.05496884 281.14041727 230.01745598 284.52890015 229.98910522 C285.99153183 229.97407819 287.4541189 229.9536506 288.91659546 229.92758179 C291.02673389 229.89092748 293.13627334 229.87411338 295.24667358 229.8609314 C297.14763794 229.83736572 297.14763794 229.83736572 299.08700562 229.81332397 C303.56444824 230.24569504 306.92038452 231.60925644 310.25839233 234.65390015 C314.21271452 239.73236075 314.73744624 242.87553578 314.71151733 249.2281189 C314.70939491 250.25386772 314.70939491 250.25386772 314.70722961 251.30033875 C314.70163985 253.48073736 314.6890893 255.66103265 314.67636108 257.84140015 C314.67134476 259.32121637 314.66678208 260.80103421 314.66268921 262.28085327 C314.65167379 265.90523571 314.63441621 269.52955784 314.61386108 273.15390015 C315.62706421 273.1074939 316.64026733 273.06108765 317.68417358 273.01327515 C319.0357064 272.97573257 320.38727137 272.93933508 321.73886108 272.90390015 C322.40401733 272.87038452 323.06917358 272.8368689 323.75448608 272.80233765 C328.9065421 272.70131694 331.64166837 273.95862159 335.61386108 277.15390015 C339.20161017 280.83606368 339.85719124 283.69920732 339.8865509 288.66851807 C339.76193578 297.72639084 338.28231324 306.55414429 336.87582397 315.48251343 C336.58105263 317.40059369 336.28713623 319.3188055 335.9940033 321.23713684 C335.20114442 326.40928503 334.3962444 331.57949239 333.58891988 336.74939966 C332.74451049 342.16948042 331.91085207 347.59121498 331.07588196 353.01275635 C329.67422167 362.1037879 328.26533087 371.19367403 326.85140991 380.2828064 C325.03553565 391.95601372 323.23115415 403.63096663 321.43053532 415.30653572 C319.88153188 425.35035298 318.32789016 435.39345184 316.77318263 445.43638754 C316.27358785 448.66448774 315.7745171 451.89266869 315.27546883 455.12085342 C314.49265132 460.18235553 313.70696196 465.243404 312.91901207 470.30410957 C312.62988083 472.16361134 312.34163612 474.02325119 312.05432892 475.88303566 C311.66300543 478.41496468 311.26845903 480.9463703 310.87303162 483.47766113 C310.75921601 484.21878997 310.6454004 484.95991881 310.52813584 485.72350609 C310.06889945 488.64391852 309.55098455 491.34252976 308.61386108 494.15390015 C309.79939575 494.14342651 310.98493042 494.13295288 312.20639038 494.12216187 C316.61391163 494.08590273 321.02141973 494.06297811 325.42904663 494.04403687 C327.33499368 494.03399278 329.24092538 494.02035499 331.14682007 494.00302124 C333.8897786 493.97870296 336.63253299 493.96740103 339.37557983 493.95858765 C340.64929695 493.94310379 340.64929695 493.94310379 341.94874573 493.92730713 C347.12971125 493.92632937 351.12767003 494.27701631 355.39901733 497.5015564 C356.96483662 499.63127201 357.04693105 500.96438994 357.05136108 503.59140015 C357.07069702 504.35323608 357.09003296 505.11507202 357.10995483 505.8999939 C356.39753803 509.1367222 355.25495738 510.14939458 352.61386108 512.15390015 C349.70315628 512.54581069 347.17169094 512.69145956 344.26168823 512.65726471 C343.4073309 512.66307847 342.55297358 512.66889224 341.67272663 512.67488217 C338.79019244 512.68955987 335.90849942 512.67556081 333.02597046 512.66183472 C330.94646517 512.66644056 328.86696314 512.67279133 326.78746796 512.68074369 C321.05774665 512.69750362 315.32829046 512.6891604 309.59856796 512.67679882 C303.42534298 512.66777786 297.25216477 512.68170334 291.07894897 512.69271851 C279.67947424 512.70950901 268.28010806 512.70800916 256.88063598 512.69707263 C246.3505398 512.68701949 235.82047475 512.68437935 225.29037476 512.68916321 C224.59251144 512.68946875 223.89464812 512.68977429 223.17563742 512.69008909 C220.34294619 512.6913344 217.51025496 512.69260799 214.67756376 512.69392814 C188.09228168 512.70617047 161.50705372 512.69506029 134.92177999 512.67354055 C111.29046553 512.65455742 87.65923729 512.6562559 64.02792358 512.67538452 C37.4919833 512.6967924 10.95609085 512.70530233 -15.57985687 512.69293547 C-18.40745543 512.69165255 -21.23505401 512.69040119 -24.06265259 512.68916321 C-24.75890474 512.6888469 -25.45515689 512.68853059 -26.17250758 512.68820469 C-36.69726303 512.6836504 -47.22198395 512.68898409 -57.74673462 512.69908142 C-69.71111202 512.71050252 -81.67538755 512.70730704 -93.63976097 512.68595845 C-99.74854694 512.67541886 -105.85715757 512.67137567 -111.96594238 512.68455505 C-117.55192526 512.69642459 -123.13756934 512.69000653 -128.72352123 512.66864485 C-130.75037391 512.66415563 -132.77725488 512.66649657 -134.80408955 512.676148 C-137.54779543 512.68821654 -140.29032296 512.67593476 -143.03396606 512.65726471 C-144.22937405 512.67131171 -144.22937405 512.67131171 -145.44893169 512.68564248 C-149.01183273 512.63679413 -150.99840119 512.4487825 -153.87494659 510.26111174 C-156.08873778 507.17419396 -155.94661522 504.96709988 -155.77676392 501.27890015 C-155.38613892 499.15390015 -155.38613892 499.15390015 -153.63613892 496.65390015 C-149.83866663 494.12225196 -146.24047904 494.00485962 -141.74551392 493.8374939 C-140.67559204 493.79559937 -139.60567017 493.75370483 -138.50332642 493.71054077 C-137.39215454 493.67122437 -136.28098267 493.63190796 -135.13613892 493.59140015 C-134.00949829 493.54821655 -132.88285767 493.50503296 -131.72207642 493.46054077 C-128.94354937 493.35457999 -126.16493501 493.25250873 -123.38613892 493.15390015 C-124.0864624 492.29357178 -124.0864624 492.29357178 -124.80093384 491.41586304 C-128.33957448 486.98485754 -131.38183228 482.80584664 -133.69863892 477.59140015 C-134.40440063 476.04259155 -134.40440063 476.04259155 -135.12442017 474.4624939 C-137.83182716 467.36288484 -138.70983506 460.99945957 -138.75723267 453.46640015 C-138.76626114 452.56445923 -138.77528961 451.66251831 -138.78459167 450.73324585 C-138.79901748 448.83736452 -138.80796168 446.94143428 -138.81167603 445.04550171 C-138.82360744 442.16150825 -138.87289677 439.27963312 -138.92324829 436.39608765 C-138.93271072 434.54453548 -138.93994662 432.69297031 -138.94473267 430.84140015 C-138.96426498 429.98908813 -138.9837973 429.13677612 -139.00392151 428.25863647 C-138.95816854 422.12751154 -137.41529286 417.83913782 -133.38613892 413.15390015 C-127.17865901 408.03694567 -121.64906071 409.15390015 -113.38613892 409.15390015 C-113.71613892 400.57390015 -114.04613892 391.99390015 -114.38613892 383.15390015 C-117.68613892 381.50390015 -120.98613892 379.85390015 -124.38613892 378.15390015 C-131.55370619 373.13660306 -135.62236343 366.44522659 -138.38613892 358.15390015 C-139.03322592 348.80826659 -139.10176564 340.52686113 -134.38613892 332.15390015 C-133.87760376 331.20643921 -133.87760376 331.20643921 -133.35879517 330.23983765 C-130.03408596 324.86824341 -124.9105743 321.0947274 -119.38613892 318.15390015 C-117.40613892 317.82390015 -115.42613892 317.49390015 -113.38613892 317.15390015 C-113.38613892 308.57390015 -113.38613892 299.99390015 -113.38613892 291.15390015 C-116.35613892 291.15390015 -119.32613892 291.15390015 -122.38613892 291.15390015 C-128.66503384 290.17718316 -132.42495225 287.77043292 -136.29238892 282.7749939 C-141.77913456 274.64285303 -139.17620179 257.25792906 -137.92520142 247.8140564 C-137.26731321 244.49752587 -136.42893793 241.36952753 -135.38613892 238.15390015 C-135.10407593 237.23471802 -135.10407593 237.23471802 -134.8163147 236.29696655 C-127.30716745 212.22826787 -111.1222018 192.85585866 -89.01113892 180.77890015 C-69.01076762 170.37381179 -48.47295223 169.81570395 -26.38613892 170.15390015 C-26.71613892 169.49390015 -27.04613892 168.83390015 -27.38613892 168.15390015 C-27.70937586 165.99903758 -27.98301023 163.83667349 -28.23403931 161.67221069 C-28.3122139 161.00695374 -28.39038849 160.34169678 -28.47093201 159.65628052 C-28.72898594 157.45148031 -28.98151898 155.24608711 -29.23379517 153.0406189 C-29.41147925 151.5084296 -29.58941542 149.97626952 -29.76759338 148.44413757 C-30.14065352 145.22893094 -30.511061 142.01343295 -30.87954712 138.79769897 C-31.35138312 134.6813891 -31.82910033 130.56578834 -32.30873966 126.45038128 C-32.67720304 123.2841593 -33.04284953 120.11761699 -33.40762138 116.95096779 C-33.58265818 115.43386534 -33.75848984 113.91685439 -33.9351368 112.39993858 C-34.18210973 110.27486169 -34.42536436 108.14939085 -34.66763306 106.02377319 C-34.87628746 104.21081001 -34.87628746 104.21081001 -35.0891571 102.36122131 C-35.34502163 99.59795541 -35.44625305 96.92574792 -35.38613892 94.15390015 C-36.2665686 94.21190796 -37.14699829 94.26991577 -38.05410767 94.3296814 C-39.79627563 94.39735718 -39.79627563 94.39735718 -41.57363892 94.46640015 C-42.7221936 94.52440796 -43.87074829 94.58241577 -45.05410767 94.6421814 C-49.46653446 93.99557724 -50.64823428 92.62904324 -53.38613892 89.15390015 C-53.87520907 86.33488841 -54.06736807 84.13384381 -54.01504517 81.32577515 C-54.01745712 80.57733337 -54.01986908 79.8288916 -54.02235413 79.05776978 C-54.02137745 77.47761733 -54.00802636 75.89742991 -53.98306274 74.31747437 C-53.94893268 71.92449674 -53.96236411 69.53525533 -53.98184204 67.1421814 C-53.97203722 57.27001819 -52.70468534 50.22932409 -47.26113892 41.90390015 C-42.45382955 37.30560423 -37.293789 34.2549841 -30.56582642 34.02108765 C-29.51652954 34.06491577 -28.46723267 34.1087439 -27.38613892 34.15390015 C-27.43834595 32.6514978 -27.43834595 32.6514978 -27.49160767 31.1187439 C-27.7629054 20.26819789 -26.70663957 14.10300296 -19.15567017 5.8843689 C-13.3953081 0.25116715 -7.699058 0.00479856 0 0 Z " fill="#010100" transform="translate(155.38613891601563,-0.153900146484375)"/>
<path d="M0 0 C7.9747036 -0.61082836 15.29576282 0.16696823 21.6887207 5.37597656 C26.54263402 9.86416167 29.12758448 14.65250264 31.8125 20.625 C35.97547465 29.3952892 40.60830147 36.68117796 47 44 C47.56976563 44.66902344 48.13953125 45.33804688 48.7265625 46.02734375 C59.56580076 57.8009991 75.73193507 65.9835874 91 70 C91.99 70.37125 92.98 70.7425 94 71.125 C119.1877129 78.47141626 150.00162591 72.37815307 172.50390625 60.0859375 C188.98629935 49.64207433 200.60349028 35.71773881 208.22558594 17.86083984 C211.73360358 9.76615668 216.55687798 4.47414637 224.75 0.75 C229.19243698 -0.27517776 233.4623386 -0.16141878 238 0 C238.32046502 7.99430296 237.08461285 15.45424061 235.6875 23.3125 C235.2520237 25.808266 234.81846811 28.30436781 234.38671875 30.80078125 C234.27343735 31.45510132 234.16015594 32.10942139 234.04344177 32.78356934 C233.18541341 37.79035708 232.41394028 42.80687032 231.671875 47.83203125 C230.43028044 56.23617239 229.12119018 64.62883342 227.78931618 73.01904488 C227.43837078 75.23006148 227.08807919 77.44118079 226.73796082 79.65232849 C225.77306376 85.74464429 224.80813142 91.83694956 223.83666992 97.92822266 C221.12781952 114.92114879 218.54851039 131.9127585 216.32719421 148.97686768 C215.18503948 157.72919593 213.88902233 166.42933225 212.375 175.125 C212.17132813 176.31996094 211.96765625 177.51492188 211.7578125 178.74609375 C211.36275854 181.06323718 210.96543754 183.37999568 210.56542969 185.69628906 C209.83722127 189.95108887 209.14180644 194.211043 208.45166016 198.47216797 C208.05958551 200.66651438 207.54063572 202.83745712 207 205 C148.92 205 90.84 205 31 205 C29.35 193.78 27.7 182.56 26 171 C24.09052713 159.63594468 24.09052713 159.63594468 22.171875 148.2734375 C21.02631314 141.32455502 20.08076262 134.36019669 19.1875 127.375 C17.3340197 112.92302433 15.15020003 98.52585411 12.9375 84.125 C12.7656015 83.00003113 12.593703 81.87506226 12.41659546 80.71600342 C10.1170972 65.60137322 10.1170972 65.60137322 7.41796875 50.5546875 C5.78059273 42.07437282 4.5660618 33.55182372 3.375 25 C3.15656572 23.45438243 2.93781662 21.90880932 2.71875 20.36328125 C1.76133842 13.58136666 0.8374394 6.79792614 0 0 Z " fill="#F24234" transform="translate(239,290)"/>
<path d="M0 0 C1.66922299 -0.00215265 3.33844448 -0.00604035 5.00765991 -0.01150513 C9.48886484 -0.02109293 13.96966343 -0.0060316 18.45081925 0.01440096 C23.16615632 0.03213584 27.8814839 0.02844379 32.59684753 0.02767944 C40.50555105 0.02954446 48.41409981 0.04680402 56.32275391 0.07421875 C65.44217806 0.10571538 74.5614334 0.11621256 83.68090802 0.11474764 C93.43352038 0.1133931 103.18606847 0.12728832 112.93866134 0.14564085 C115.73190989 0.14988561 118.52514795 0.15132072 121.31839943 0.15211868 C125.71724536 0.15413939 130.11595171 0.16644455 134.51475143 0.18645096 C136.12108059 0.19225151 137.72742582 0.19476183 139.33376503 0.19359589 C159.12722315 0.18467142 177.7366099 4.0233608 193.66088867 16.48583984 C193.66088867 16.81583984 193.66088867 17.14583984 193.66088867 17.48583984 C193.0864502 17.49518555 192.51201172 17.50453125 191.92016602 17.51416016 C189.29123564 17.56819016 186.66402301 17.65176879 184.03588867 17.73583984 C183.13225586 17.75001953 182.22862305 17.76419922 181.29760742 17.77880859 C175.66875418 17.98424119 171.98142783 18.52423778 167.66088867 22.48583984 C163.73009002 27.86659194 164.11157579 33.94895776 163.97338867 40.36083984 C163.93922852 41.43076172 163.90506836 42.50068359 163.86987305 43.60302734 C163.78776369 46.23052674 163.71849243 48.85770801 163.66088867 51.48583984 C162.72817139 51.49518555 161.7954541 51.50453125 160.83447266 51.51416016 C157.34691764 51.558386 153.86055513 51.62009154 150.37353516 51.69335938 C148.86941674 51.72144357 147.36515419 51.74272017 145.86083984 51.75683594 C143.68797683 51.77844213 141.51682392 51.82517416 139.34448242 51.87646484 C138.04051514 51.89741211 136.73654785 51.91835937 135.39306641 51.93994141 C130.70390327 52.62581625 128.49517873 53.69206467 124.66088867 56.48583984 C119.99351461 64.80073782 119.99351461 64.80073782 120.66088867 85.48583984 C53.01088867 85.48583984 -14.63911133 85.48583984 -84.33911133 85.48583984 C-84.33911133 62.20704884 -80.57284666 44.07717707 -65.33911133 26.48583984 C-64.72036133 25.67115234 -64.10161133 24.85646484 -63.46411133 24.01708984 C-57.65116204 17.09284143 -49.54352116 12.30306004 -41.58911133 8.17333984 C-40.71657715 7.70383911 -40.71657715 7.70383911 -39.82641602 7.22485352 C-27.2204233 0.98018737 -13.80215283 -0.1051824 0 0 Z " fill="#FE9700" transform="translate(118.339111328125,187.51416015625)"/>
<path d="M0 0 C75.24 0 150.48 0 228 0 C226.36124165 15.56820429 224.68722251 31.1313282 222.96826172 46.69067383 C222.65430403 49.53423116 222.34223198 52.37798621 222.03173828 55.22192383 C221.64985464 58.71956135 221.2646381 62.21681749 220.87715149 65.71383858 C220.66343046 67.6498006 220.45293589 69.58611797 220.24255371 71.52244568 C219.40264138 79.06420601 218.334701 86.52968023 217 94 C216.36211548 94.01671753 215.72423096 94.03343506 215.0670166 94.05065918 C212.4814994 94.12210385 209.89726254 94.21769556 207.3125 94.3125 C206.40048828 94.33505859 205.48847656 94.35761719 204.54882812 94.38085938 C199.52018137 94.58200525 196.14389898 94.88630967 192 98 C190.67391178 98.68096422 189.34313399 99.35330586 188 100 C187.14019531 99.34773438 186.28039062 98.69546875 185.39453125 98.0234375 C177.63769595 92.24591732 170.02410637 87.62789611 161 84 C160.05253906 83.61070312 159.10507812 83.22140625 158.12890625 82.8203125 C147.47124326 78.67818532 137.09734988 77.701875 125.72583008 77.68115234 C124.44650604 77.67110672 123.16718201 77.6610611 121.84909058 77.65071106 C118.37672459 77.62365974 114.90439859 77.60833648 111.43195558 77.59528303 C107.78977061 77.57954229 104.14766603 77.55278762 100.50553894 77.5272522 C93.62461333 77.48065656 86.74367227 77.44382014 79.8626706 77.41057932 C72.02212778 77.37222127 64.18166608 77.32284745 56.34119189 77.27259517 C40.22751971 77.16956149 24.11380231 77.08020918 8 77 C7.85802689 75.70882263 7.71605377 74.41764526 7.56977844 73.08734131 C7.03577777 68.2344755 6.4998294 63.38182634 5.96333313 58.52923584 C5.73269009 56.44067017 5.50255475 54.35204836 5.27296448 52.2633667 C3.26154472 33.95565179 3.26154472 33.95565179 0.81481934 15.7019043 C0.05556031 10.31141472 0 5.56178179 0 0 Z " fill="#2195F1" transform="translate(138,94)"/>
<path d="M0 0 C20.1487235 -0.96782854 40.29260735 -1.68540697 60.45992947 -2.12429905 C69.83052588 -2.33375103 79.18638013 -2.61873887 88.54760742 -3.09301758 C156.21508237 -6.45624353 156.21508237 -6.45624353 175.55926669 10.6644913 C183.30092776 17.79893351 190.1113879 26.06383791 195.94962502 34.81498146 C198.74971554 39.20061496 198.74971554 39.20061496 203.11733818 41.61514091 C206.69729662 41.72239039 208.62321195 41.3172952 211.375 39 C212.179375 38.01 212.179375 38.01 213 37 C213.66 37 214.32 37 215 37 C215.67444768 41.040408 216.33817587 45.08250666 217 49.125 C217.19078125 50.26710938 217.3815625 51.40921875 217.578125 52.5859375 C217.75859375 53.69453125 217.9390625 54.803125 218.125 55.9453125 C218.29257813 56.96125488 218.46015625 57.97719727 218.6328125 59.02392578 C219.00604974 62.04903349 219.02483004 64.95538198 219 68 C195.70363144 68.04676213 172.40727064 68.0820095 149.11086464 68.10362434 C138.29345758 68.11392813 127.47607972 68.12797133 116.65869141 68.15087891 C107.22806636 68.17084023 97.79746246 68.18372296 88.36681688 68.18817699 C83.3753735 68.19077972 78.38399063 68.1968786 73.39256668 68.21146011 C68.68946758 68.22508735 63.98645361 68.22921227 59.28333664 68.22621536 C57.56209601 68.22676323 55.84085239 68.23070992 54.11962891 68.23841095 C37.11008329 68.31074809 24.04758915 66.64128211 11.26171875 54.4375 C0.2035626 42.51990166 -0.18538157 28.96356792 -0.0703125 13.4921875 C-0.06269897 11.54397095 -0.06269897 11.54397095 -0.05493164 9.55639648 C-0.04175015 6.37086982 -0.02329401 3.18546609 0 0 Z " fill="#FD9701" transform="translate(34,427)"/>
<path d="M0 0 C10.20112223 7.56505242 17.05928411 18.22771598 19.8046875 30.58203125 C19.8871875 31.77828125 19.9696875 32.97453125 20.0546875 34.20703125 C20.11785156 35.0784375 20.18101562 35.94984375 20.24609375 36.84765625 C20.79575977 50.394264 16.12632143 62.51761518 6.953125 72.4921875 C-3.18104703 82.07130771 -15.81942009 86.8554367 -29.703125 86.49609375 C-41.65019962 85.43093288 -52.25045903 80.41709972 -60.9453125 72.20703125 C-70.13273524 61.12063334 -74.56886088 49.79851558 -74.25390625 35.34765625 C-72.95621021 22.14072437 -66.64055478 10.45674576 -56.47265625 1.9921875 C-38.58630952 -10.64159991 -18.45742323 -11.23601759 0 0 Z " fill="#040201" transform="translate(380.9453125,391.79296875)"/>
<path d="M0 0 C1.321058 -0.00874829 1.321058 -0.00874829 2.66880405 -0.01767331 C3.6371739 -0.01389399 4.60554374 -0.01011467 5.60325813 -0.00622082 C6.63134877 -0.01004636 7.65943941 -0.01387191 8.71868432 -0.01781338 C12.18027039 -0.02817189 15.64169147 -0.0241458 19.10328865 -0.02018261 C21.57834719 -0.02452752 24.05340438 -0.02970993 26.52845955 -0.03567028 C32.56366059 -0.04769989 38.59879624 -0.05020871 44.63400327 -0.04787002 C49.53902406 -0.04608854 54.44403134 -0.04783284 59.34905052 -0.05209446 C60.04659147 -0.05268965 60.74413242 -0.05328484 61.46281097 -0.05389806 C62.87978172 -0.05510979 64.29675246 -0.05632392 65.7137232 -0.05754044 C79.00967288 -0.06842309 92.30559721 -0.06625018 105.60154833 -0.06015559 C117.76801454 -0.05498696 129.93440067 -0.06623916 142.10085104 -0.08525381 C154.58874479 -0.10462142 167.07660064 -0.11289003 179.56450951 -0.10913056 C186.57733934 -0.10721672 193.59010103 -0.10972368 200.60291862 -0.1238451 C207.1971287 -0.13698896 213.79120475 -0.13451347 220.38542366 -0.12143421 C222.80861273 -0.11906095 225.23181298 -0.12182977 227.65498924 -0.13005733 C230.95726987 -0.14046302 234.25900535 -0.13247351 237.56126595 -0.11974621 C238.52517435 -0.12712049 239.48908275 -0.13449478 240.4822005 -0.14209253 C246.67075101 -0.09175162 250.21172628 0.7569562 254.70924568 5.25447559 C254.70924568 12.18447559 254.70924568 19.11447559 254.70924568 26.25447559 C167.25924568 26.25447559 79.80924568 26.25447559 -10.29075432 26.25447559 C-10.29075432 7.25447559 -10.29075432 7.25447559 -7.29075432 2.25447559 C-4.18188027 0.18189289 -3.52164904 0.00400764 0 0 Z " fill="#F3F3F3" transform="translate(129.2907543182373,50.745524406433105)"/>
<path d="M0 0 C53.46 0 106.92 0 162 0 C166 21 166 21 166 26 C164.69180298 26.02187378 164.69180298 26.02187378 163.35717773 26.04418945 C160.09340004 26.10557372 156.83042043 26.17978388 153.56713867 26.26245117 C152.1600222 26.29551994 150.75277884 26.32360704 149.34545898 26.34643555 C147.31179176 26.38031799 145.27926865 26.43264218 143.24609375 26.48828125 C141.41582642 26.52755737 141.41582642 26.52755737 139.54858398 26.56762695 C130.05019231 27.72494733 125.38690238 33.07463217 118.91015625 39.69921875 C117.95697063 40.65987596 117.00288965 41.61964553 116.04795837 42.5785675 C113.55171246 45.0899975 111.06772032 47.61320826 108.58618164 50.13916016 C106.04593724 52.7205141 103.49415884 55.29041139 100.94335938 57.86132812 C95.95096296 62.89646754 90.971436 67.9441572 86 73 C82.56913577 71.52286929 80.36703155 69.600085 77.75390625 66.94921875 C76.92624756 66.11495361 76.09858887 65.28068848 75.24584961 64.42114258 C74.36034424 63.51904053 73.47483887 62.61693848 72.5625 61.6875 C71.16139471 60.27482448 69.76028381 58.86215447 68.35884094 57.44981384 C65.40408115 54.46877842 62.45842255 51.47874983 59.5111084 48.49035645 C57.08261609 46.0287202 54.65218581 43.56907476 52.21655273 41.11450195 C50.39105718 39.27393159 48.57010202 37.42884472 46.75415039 35.57885742 C45.9264917 34.74459229 45.09883301 33.91032715 44.24609375 33.05078125 C43.52091553 32.31512939 42.7957373 31.57947754 42.04858398 30.8215332 C37.57055487 26.83981765 33.55430129 26.67360863 27.734375 26.5859375 C26.94097717 26.56657135 26.14757935 26.5472052 25.33013916 26.5272522 C22.80353443 26.46761639 20.27688375 26.42113557 17.75 26.375 C16.03383463 26.33680545 14.31768813 26.29775285 12.6015625 26.2578125 C8.40114152 26.16031724 4.20091418 26.08062361 0 26 C0 17.42 0 8.84 0 0 Z " fill="#FCE839" transform="translate(60,290)"/>
<path d="M0 0 C58.41 0 116.82 0 177 0 C185.81062356 57.89838337 185.81062356 57.89838337 182.5625 62.3125 C181.716875 62.869375 180.87125 63.42625 180 64 C177.08174612 62.68491236 175.05070343 61.28517223 172.82714844 58.99072266 C172.23262878 58.38314117 171.63810913 57.77555969 171.02557373 57.14956665 C170.39322815 56.49435028 169.76088257 55.83913391 169.109375 55.1640625 C167.74637828 53.77576226 166.38308765 52.38775053 165.01953125 51 C162.88509699 48.81606451 160.75397538 46.62910073 158.62841797 44.43652344 C156.56855634 42.31586645 154.49611697 40.20814308 152.421875 38.1015625 C151.48550201 37.12481064 151.48550201 37.12481064 150.5302124 36.12832642 C149.61951996 35.20749771 149.61951996 35.20749771 148.69042969 34.26806641 C147.90910675 33.46437119 147.90910675 33.46437119 147.11199951 32.6444397 C139.59083874 26.78833259 132.89563845 26.41642265 123.515625 26.45410156 C122.16469642 26.44535429 120.81377817 26.43486449 119.46287537 26.42277527 C115.81668789 26.39503533 112.17084048 26.3915079 108.52456284 26.39249516 C104.70615874 26.38935565 100.88790548 26.36371596 97.06958008 26.34051514 C89.84853271 26.30003076 82.62757548 26.27963229 75.40643215 26.26654124 C67.1814132 26.25064549 58.95654707 26.21221909 50.73161697 26.17194796 C33.82110009 26.08965248 16.910682 26.03846955 0 26 C0 17.42 0 8.84 0 0 Z " fill="#4BAC4E" transform="translate(60,384)"/>
<path d="M0 0 C8.58 0 17.16 0 26 0 C26 46.86 26 93.72 26 142 C7 142 7 142 0 141 C0 94.47 0 47.94 0 0 Z " fill="#FAAF00" transform="translate(341,205)"/>
<path d="M0 0 C1.23102584 -0.00785502 1.23102584 -0.00785502 2.48692089 -0.01586872 C5.24060238 -0.03088676 7.99409834 -0.03157427 10.74781799 -0.03224182 C12.72056899 -0.03986199 14.69331702 -0.04828924 16.6660614 -0.0574646 C22.02756523 -0.07942802 27.38901202 -0.08821076 32.75055575 -0.09329104 C36.09880741 -0.09693183 39.44704405 -0.10317037 42.79528999 -0.11029243 C54.47201826 -0.1347914 66.14870206 -0.14784022 77.82545471 -0.15138245 C88.71710705 -0.15502012 99.608478 -0.18493108 110.50004429 -0.22678703 C119.84620777 -0.26144754 129.19227779 -0.27693014 138.53850514 -0.27762848 C144.12282792 -0.27842261 149.70686404 -0.2872241 155.29112053 -0.31562614 C160.54185569 -0.34173472 165.79206499 -0.3440523 171.04283524 -0.3279705 C172.97098115 -0.32615038 174.8991568 -0.33289729 176.82723808 -0.34878922 C179.45771842 -0.36915063 182.08634157 -0.35875758 184.71679688 -0.34057617 C185.4815848 -0.35377614 186.24637272 -0.36697611 187.03433603 -0.38057607 C190.62133974 -0.32386211 192.83983696 0.2254475 195.9347086 2.06257534 C197.92189026 5.27415466 197.92189026 5.27415466 197.92189026 17.27415466 C127.63189026 17.27415466 57.34189026 17.27415466 -15.07810974 17.27415466 C-15.07810974 5.70272609 -15.07810974 5.70272609 -12.07810974 2.27415466 C-8.34737695 -0.30182988 -4.36011574 -0.01372854 0 0 Z " fill="#F3F3F3" transform="translate(160.07810974121094,16.725845336914063)"/>
<path d="M0 0 C0.32046502 7.99430296 -0.91538715 15.45424061 -2.3125 23.3125 C-2.7479763 25.808266 -3.18153189 28.30436781 -3.61328125 30.80078125 C-3.72656265 31.45510132 -3.83984406 32.10942139 -3.95655823 32.78356934 C-4.81458659 37.79035708 -5.58605972 42.80687032 -6.328125 47.83203125 C-7.56971956 56.23617239 -8.87880982 64.62883342 -10.21068382 73.01904488 C-10.56162922 75.23006148 -10.91192081 77.44118079 -11.26203918 79.65232849 C-12.22693624 85.74464429 -13.19186858 91.83694956 -14.16333008 97.92822266 C-16.87218048 114.92114879 -19.45148961 131.9127585 -21.67280579 148.97686768 C-22.81496052 157.72919593 -24.11097767 166.42933225 -25.625 175.125 C-25.82867187 176.31996094 -26.03234375 177.51492188 -26.2421875 178.74609375 C-26.63724146 181.06323718 -27.03456246 183.37999568 -27.43457031 185.69628906 C-28.16277873 189.95108887 -28.85819356 194.211043 -29.54833984 198.47216797 C-29.94041449 200.66651438 -30.45936428 202.83745712 -31 205 C-36.61 205 -42.22 205 -48 205 C-44.79249483 182.33508676 -41.49833421 159.68484641 -38.08789062 137.04956055 C-37.48568117 133.05171682 -36.88741828 129.05329238 -36.28999901 125.05473042 C-35.81665637 121.89100818 -35.3406502 118.72769068 -34.86394119 115.56447411 C-34.64218035 114.09019221 -34.4213267 112.61577348 -34.20151901 111.14119911 C-32.86858608 102.20740096 -31.36030175 93.32930662 -29.64649963 84.46022034 C-28.78805603 79.86562529 -28.1457378 75.26109858 -27.5625 70.625 C-26.48110818 62.37792601 -25.28122602 54.15587464 -24 45.9375 C-22.73058229 37.77635312 -21.48456659 29.61325344 -20.3125 21.4375 C-20.19326172 20.6117749 -20.07402344 19.7860498 -19.95117188 18.93530273 C-19.19730674 13.63264585 -18.56927877 8.32568268 -18 3 C-11.75690073 0.22528921 -6.80203375 -0.37634203 0 0 Z " fill="#C32727" transform="translate(477,290)"/>
<path d="M0 0 C8.58 0 17.16 0 26 0 C26.24858657 14.0908603 26.4503582 28.18026316 26.56993389 42.27282047 C26.62732691 48.81674256 26.7051575 55.35908613 26.82983398 61.90209961 C26.94942042 68.21756405 27.01513885 74.53151126 27.04364967 80.84802055 C27.06396432 83.25676809 27.10363734 85.66543314 27.16303062 88.07353401 C27.61073565 106.97889126 27.61073565 106.97889126 23.60427856 112.00608826 C20.74671749 113.86385364 18.24353967 114.99509437 15 116 C13.79543391 116.57880862 12.59600601 117.16867347 11.40625 117.77734375 C10.4471875 118.16019531 9.488125 118.54304688 8.5 118.9375 C7.5203125 119.33839844 6.540625 119.73929687 5.53125 120.15234375 C3 121 3 121 0 121 C0 81.07 0 41.14 0 0 Z " fill="#F9D433" transform="translate(384,222)"/>
<path d="M0 0 C6.89892018 4.55436527 11.38624773 11.2048005 14 19 C14.91131463 27.18063833 14.25771269 33.92626848 10 41 C9.63390625 41.68707031 9.2678125 42.37414062 8.890625 43.08203125 C4.56750275 50.06040451 -2.5051889 53.35805913 -10 56 C-17.69232354 57.35421744 -24.40280023 56.17248269 -31 52 C-37.52056023 47.3340194 -43.56197282 41.17255052 -45 33 C-45.71310421 23.67870928 -46.16652448 15.62746417 -40 8 C-29.4133654 -4.25820849 -14.59066887 -8.1565892 0 0 Z " fill="#F2F2F2" transform="translate(370,405)"/>
<path d="M0 0 C8.25 0 16.5 0 25 0 C25 38.94 25 77.88 25 118 C17.08777598 115.73936457 17.08777598 115.73936457 13.0625 112.8125 C12.29035156 112.26207031 11.51820313 111.71164062 10.72265625 111.14453125 C9.82417969 110.43683594 8.92570312 109.72914063 8 109 C7.34529472 108.54342483 6.69058945 108.08684965 6.01604462 107.61643887 C0.44615685 103.39059776 0.44615685 103.39059776 -0.72729492 99.73314095 C-0.98256987 97.07183453 -0.9909754 94.51440306 -0.90820312 91.84204102 C-0.90937134 90.84615463 -0.91053955 89.85026825 -0.91174316 88.82420349 C-0.90619226 85.54932666 -0.84407961 82.27814254 -0.78125 79.00390625 C-0.76632088 76.72706593 -0.75493703 74.45019983 -0.74694824 72.17332458 C-0.71646774 66.19349661 -0.63793723 60.21523422 -0.54931641 54.23602295 C-0.46733833 48.12956927 -0.43091104 42.02286149 -0.390625 35.91601562 C-0.30494046 23.94321344 -0.16427239 11.97198211 0 0 Z " fill="#FCD733" transform="translate(299,222)"/>
<path d="M0 0 C13.48145378 7.16055936 24.08117789 20.89286122 33 33 C33 33.33 33 33.66 33 34 C23.11606617 34.13940252 13.23236857 34.24582427 3.34764957 34.31087303 C-1.24295366 34.34210341 -5.83288125 34.38442263 -10.4230957 34.45263672 C-14.85816083 34.51812804 -19.29257869 34.55376834 -23.72809029 34.56926346 C-25.4149449 34.58029676 -27.10176657 34.60184247 -28.78834343 34.63438034 C-44.71627275 34.9292711 -44.71627275 34.9292711 -51.40406799 29.62149048 C-55.07049844 25.89634302 -57.17315608 22.27521381 -57.4375 16.9375 C-56.65909964 9.93189676 -53.8928468 6.51865512 -48.62109375 2.19921875 C-38.13306622 -5.55939438 -11.75541749 -3.81655685 0 0 Z " fill="#785447" transform="translate(91,333)"/>
<path d="M0 0 C0.71402189 4.52036627 1.42605427 9.04103967 2.13623047 13.56201172 C2.37819395 15.10050971 2.6207045 16.63892176 2.86376953 18.17724609 C3.21269696 20.38617032 3.55966708 22.59539436 3.90625 24.8046875 C4.0156189 25.49432587 4.12498779 26.18396423 4.2376709 26.89450073 C5 31.77225659 5 31.77225659 5 34 C-17.44 34 -39.88 34 -63 34 C-61.02 31.69 -59.04 29.38 -57 27 C-56.11441406 25.91984619 -55.22882813 24.83969238 -54.31640625 23.72680664 C-37.93276855 3.82025518 -26.21012701 -4.8292675 0 0 Z " fill="#775447" transform="translate(229,333)"/>
<path d="M0 0 C5.94 0 11.88 0 18 0 C16.45231319 14.86553182 14.84264928 29.72398557 13.20149231 44.57945824 C12.80961686 48.12673546 12.41907522 51.6741479 12.03173828 55.22192383 C11.64985464 58.71956135 11.2646381 62.21681749 10.87715149 65.71383858 C10.66343046 67.6498006 10.45293589 69.58611797 10.24255371 71.52244568 C9.4021831 79.06832096 8.31274712 86.52141694 7 94 C1.39 94 -4.22 94 -10 94 C-10.09173419 87.92824931 -9.80236214 82.10614697 -9.046875 76.0859375 C-8.89653809 74.83062729 -8.89653809 74.83062729 -8.74316406 73.54995728 C-8.52799197 71.75521329 -8.3106079 69.96073334 -8.09118652 68.16650391 C-7.50751272 63.39102894 -6.94039348 58.6136068 -6.375 53.8359375 C-6.2592865 52.85945251 -6.143573 51.88296753 -6.02435303 50.87689209 C-4.61960514 38.91698028 -3.42667714 26.93553343 -2.25683594 14.95068359 C-2.17892822 14.16527191 -2.10102051 13.37986023 -2.02075195 12.57064819 C-1.87594355 11.11002963 -1.73398586 9.64912442 -1.59545898 8.18789673 C-1.30658101 5.28617198 -0.9265479 2.77964371 0 0 Z " fill="#1465BE" transform="translate(348,94)"/>
<path d="M0 0 C8.25 0 16.5 0 25 0 C25.20757996 4.31048761 25.38616385 8.60351762 25.49438477 12.91503906 C25.53948228 14.37820277 25.60078644 15.84096439 25.67895508 17.30273438 C26.31437189 29.49609224 26.31437189 29.49609224 23.08178711 33.19482422 C20.6875 34.75 20.6875 34.75 18.296875 35.8671875 C9.31530778 40.29687201 5.0519335 53.42253038 1 62 C0.67 62 0.34 62 0 62 C0 41.54 0 21.08 0 0 Z " fill="#FEB201" transform="translate(427,248)"/>
<path d="M0 0 C32.01819008 -0.06841841 64.03635938 -0.12151901 96.05460547 -0.15319599 C99.8335229 -0.15694817 103.6124402 -0.16083113 107.39135742 -0.16479492 C108.14368079 -0.16558185 108.89600416 -0.16636878 109.67112521 -0.16717956 C121.85717227 -0.18023816 134.04317694 -0.2038945 146.22919884 -0.23145839 C158.73054752 -0.25949996 171.23187398 -0.27617361 183.73325282 -0.28226548 C191.44904371 -0.28638452 199.16471476 -0.2994003 206.88046876 -0.3237494 C212.79408992 -0.34146225 218.70764935 -0.34336877 224.62129784 -0.33932304 C227.04932901 -0.34015024 229.4773646 -0.34614221 231.9053688 -0.35761642 C235.21435881 -0.37249053 238.5228315 -0.36897187 241.83183289 -0.36076355 C242.79778765 -0.36950207 243.76374241 -0.3782406 244.75896853 -0.38724393 C250.95651609 -0.34554527 254.49582936 0.49582936 259 5 C259 11.93 259 18.86 259 26 C171.55 26 84.1 26 -6 26 C-6 19.73 -6 13.46 -6 7 C-5.67 7 -5.34 7 -5 7 C-5 12.94 -5 18.88 -5 25 C76.51 25 158.02 25 242 25 C242.53776681 13.09813225 242.53776681 13.09813225 240 2 C160.8 1.67 81.6 1.34 0 1 C0 0.67 0 0.34 0 0 Z " fill="#C6CACC" transform="translate(125,51)"/>
<path d="M0 0 C9.92493991 -0.61391381 17.84533812 0.46555765 25.8125 6.75 C31.18632098 11.75627191 35.51494876 18.6458191 36.3359375 26.015625 C36.42432884 33.33442801 35.79182076 38.70029779 32 45 C31.63390625 45.68707031 31.2678125 46.37414062 30.890625 47.08203125 C26.58570981 54.03101472 19.49319342 57.41532252 12 60 C7.90983278 60.49564253 4.08835414 60.47173317 0 60 C0 59.67 0 59.34 0 59 C0.59167969 59.020625 1.18335938 59.04125 1.79296875 59.0625 C6.5848356 58.95810399 6.5848356 58.95810399 10.5703125 56.57421875 C11.97076501 54.44711635 12.99690323 52.34178843 14 50 C14.391875 49.12988281 14.78375 48.25976562 15.1875 47.36328125 C20.15299456 34.72540794 19.27453669 21.40557148 14 9 C12.56264456 5.85578498 11.56038702 4.50348954 9 2 C5.97585058 1.17014082 3.12772368 0.95230051 0 1 C0 0.67 0 0.34 0 0 Z " fill="#CAD2D6" transform="translate(348,401)"/>
<path d="M0 0 C8.58 0 17.16 0 26 0 C26 12.87 26 25.74 26 39 C23.7726311 36.7726311 21.85410188 34.61118273 19.875 32.1875 C14.20112567 25.67571174 7.89970219 22.38558665 0 19 C0 12.73 0 6.46 0 0 Z " fill="#F6AD00" transform="translate(256,256)"/>
<path d="M0 0 C4.43744296 -0.05878606 8.87478373 -0.09385813 13.3125 -0.125 C14.55580078 -0.14175781 15.79910156 -0.15851563 17.08007812 -0.17578125 C35.59028987 -0.27294772 53.25055196 4.45695371 68 16 C68 16.33 68 16.66 68 17 C67.42032471 17.01981934 66.84064941 17.03963867 66.2434082 17.06005859 C63.59934063 17.15572601 60.9560183 17.26523453 58.3125 17.375 C57.40048828 17.4059375 56.48847656 17.436875 55.54882812 17.46875 C50.98796369 17.66776954 47.13809725 17.85690122 43 20 C43 19.34 43 18.68 43 18 C42.48953125 17.75894531 41.9790625 17.51789063 41.453125 17.26953125 C39.48861445 16.25286576 37.57080265 15.14617201 35.671875 14.01171875 C24.35634483 7.25583125 13.19482699 2.63024889 0 1 C0 0.67 0 0.34 0 0 Z " fill="#F17A00" transform="translate(244,188)"/>
<path d="M0 0 C1.13050781 -0.03738281 2.26101562 -0.07476562 3.42578125 -0.11328125 C7.33054057 0.39644182 8.90898129 1.58459183 11.6875 4.3125 C13.13180855 7.20111709 13.06438506 9.10897701 12.6875 12.3125 C9.90580823 15.98196574 8.43757772 17.18989846 3.83984375 17.94140625 C2.43472702 17.94535691 1.02931493 17.92262571 -0.375 17.875 C-1.08205078 17.88595703 -1.78910156 17.89691406 -2.51757812 17.90820312 C-5.94369613 17.85994794 -7.97909852 17.5539651 -10.77734375 15.52734375 C-12.84700635 12.54134199 -12.88187957 10.74545494 -12.7109375 7.21484375 C-12.10354423 4.31483861 -10.64750208 3.02941329 -8.3125 1.3125 C-5.51518195 -0.08615903 -3.11965441 0.06712733 0 0 Z " fill="#070400" transform="translate(115.3125,212.6875)"/>
<path d="M0 0 C2.80413288 1.43597132 4.7745767 2.7745767 7 5 C7.55885772 9.23135134 7.57405085 11.23533767 4.9765625 14.6953125 C1.27042736 17.5648922 -1.56209321 17.71512608 -6.0625 17.5625 C-6.76955078 17.57345703 -7.47660156 17.58441406 -8.20507812 17.59570312 C-11.63174379 17.54744023 -13.66307294 17.24533004 -16.45703125 15.2109375 C-18.3445529 12.50628623 -18.70094904 10.25758051 -18.4921875 6.97265625 C-17.80229588 4.20761445 -16.4287982 2.47953286 -14.11328125 0.84375 C-9.62449447 -0.94844583 -4.71020474 -0.76073293 0 0 Z " fill="#070400" transform="translate(172,230)"/>
<path d="M0 0 C2.80413288 1.43597132 4.7745767 2.7745767 7 5 C7.44318626 8.91481199 7.43474422 11.2339162 5.47265625 14.69140625 C2.15936883 17.7848547 -0.62658198 17.74289202 -4.9375 17.625 C-5.99227539 17.65400391 -5.99227539 17.65400391 -7.06835938 17.68359375 C-11.00390401 17.64670955 -12.84173719 17.12402125 -15.9609375 14.6796875 C-18 12 -18 12 -18.6875 8.5 C-17.97476923 4.87155246 -17.14583849 3.07190111 -14.11328125 0.87890625 C-9.64751485 -0.97839031 -4.70762318 -0.76031599 0 0 Z " fill="#060300" transform="translate(223,213)"/>
<path d="M0 0 C-4.02748053 4.83298806 -8.24379413 9.38110004 -12.7109375 13.80859375 C-13.32393707 14.42017838 -13.93693665 15.031763 -14.56851196 15.66188049 C-16.50164564 17.58947559 -18.43824987 19.51353928 -20.375 21.4375 C-21.69684699 22.75432404 -23.01846372 24.07137926 -24.33984375 25.38867188 C-27.55724299 28.59512373 -30.77775681 31.79841629 -34 35 C-37.16115776 33.63016497 -37.9927092 33.0109362 -40 30 C-39.31973755 29.43019409 -39.31973755 29.43019409 -38.62573242 28.84887695 C-32.00372383 23.18973929 -25.96480615 16.99366832 -19.90991211 10.73852539 C-18.54709347 9.33328994 -17.17405262 7.937991 -15.80078125 6.54296875 C-14.99809814 5.71821045 -14.19541504 4.89345215 -13.3684082 4.04370117 C-9.10139986 0.36169655 -5.54391046 -0.2578563 0 0 Z " fill="#F7D332" transform="translate(180,328)"/>
<path d="M0 0 C12.52867399 -0.76290978 12.52867399 -0.76290978 17.375 1.75 C19.92874956 6.85749913 19.31119742 11.33620696 19 17 C13.39 17 7.78 17 2 17 C1.77213542 13.45182292 1.54427083 9.90364583 1.31640625 6.35546875 C1.12815453 3.00818107 1.12815453 3.00818107 0 0 Z " fill="#CDD6D9" transform="translate(339,17)"/>
</svg>
